<?xml version="1.0" encoding="UTF-8" standalone="no"?>
<!DOCTYPE svg PUBLIC "-//W3C//DTD SVG 1.1//EN" "http://www.w3.org/Graphics/SVG/1.1/DTD/svg11.dtd">
<svg width="100%" height="100%" viewBox="0 0 1125 82" version="1.1" xmlns="http://www.w3.org/2000/svg" xmlns:xlink="http://www.w3.org/1999/xlink" xml:space="preserve" xmlns:serif="http://www.serif.com/" style="fill-rule:evenodd;clip-rule:evenodd;stroke-linejoin:round;stroke-miterlimit:2;">
    <g transform="matrix(1,0,0,1,-1021,-2429)">
        <g transform="matrix(1.64967,0,0,3.23867,0,-7.36388e-13)">
            <g transform="matrix(1,0,0,0.403477,-479.609,569.735)">
                <g transform="matrix(58.1933,0,0,73.466,1297.84,503.577)">
                    <path d="M0.467,-0.7L0.467,-0.246L0.185,-0.7L0.055,-0.7L0.055,-0L0.188,-0L0.188,-0.454L0.469,-0L0.6,-0L0.6,-0.7L0.467,-0.7Z" style="fill-rule:nonzero;"/>
                </g>
                <g transform="matrix(58.1933,0,0,73.466,1390.51,503.577)">
                    <path d="M0.37,-0.706C0.169,-0.706 0.03,-0.55 0.03,-0.349C0.03,-0.148 0.169,0.008 0.37,0.008C0.571,0.008 0.709,-0.148 0.709,-0.349C0.709,-0.55 0.571,-0.706 0.37,-0.706ZM0.37,-0.126C0.242,-0.126 0.166,-0.222 0.166,-0.349C0.166,-0.477 0.242,-0.573 0.37,-0.573C0.497,-0.573 0.573,-0.477 0.573,-0.349C0.573,-0.222 0.497,-0.126 0.37,-0.126Z" style="fill-rule:nonzero;"/>
                </g>
                <g transform="matrix(58.1933,0,0,73.466,1488.15,503.577)">
                    <path d="M0.424,-0L0.574,-0L0.424,-0.26C0.511,-0.296 0.557,-0.376 0.557,-0.47C0.557,-0.598 0.47,-0.7 0.314,-0.7L0.055,-0.7L0.055,-0L0.188,-0L0.188,-0.24L0.285,-0.24L0.424,-0ZM0.188,-0.572L0.311,-0.572C0.377,-0.572 0.419,-0.53 0.419,-0.47C0.419,-0.41 0.377,-0.367 0.311,-0.367L0.188,-0.367L0.188,-0.572Z" style="fill-rule:nonzero;"/>
                </g>
                <g transform="matrix(58.1933,0,0,73.466,1577.93,503.577)">
                    <path d="M0.619,-0.7L0.398,-0.346L0.179,-0.7L0.055,-0.7L0.055,-0L0.188,-0L0.188,-0.441L0.359,-0.165L0.438,-0.165L0.609,-0.441L0.609,-0L0.742,-0L0.742,-0.7L0.619,-0.7Z" style="fill-rule:nonzero;"/>
                </g>
                <g transform="matrix(58.1933,0,0,73.466,1677.42,503.577)">
                    <rect x="0.055" y="-0.7" width="0.133" height="0.7" style="fill-rule:nonzero;"/>
                </g>
                <g transform="matrix(58.1933,0,0,73.466,1744.47,503.577)">
                    <path d="M0.452,-0L0.615,-0L0.338,-0.389L0.6,-0.7L0.426,-0.7L0.188,-0.418L0.188,-0.7L0.055,-0.7L0.055,-0L0.188,-0L0.188,-0.212L0.249,-0.284L0.452,-0Z" style="fill-rule:nonzero;"/>
                </g>
            </g>
            <g transform="matrix(0.606181,0,0,0.308769,-124.541,652.011)">
                <g transform="matrix(0.680959,0,0,0.680959,1156.43,144.001)">
                    <path d="M368.227,275.357C364.476,271.607 359.389,269.5 354.085,269.5C348.781,269.5 343.694,271.607 339.943,275.357C320.259,295.041 284.48,330.82 261.876,353.424C258.444,356.856 257.418,362.017 259.275,366.501C261.132,370.985 265.508,373.909 270.362,373.909C313.605,373.909 394.565,373.909 437.808,373.909C442.662,373.909 447.037,370.985 448.895,366.501C450.752,362.017 449.725,356.856 446.293,353.424C423.689,330.82 387.911,295.041 368.227,275.357Z" style="fill:rgb(0,175,242);fill-opacity:0.25;"/>
                </g>
                <g transform="matrix(0.680959,0,0,-0.680959,1051.24,572.136)">
                    <path d="M368.227,275.357C364.476,271.607 359.389,269.5 354.085,269.5C348.781,269.5 343.694,271.607 339.943,275.357C320.259,295.041 284.48,330.82 261.876,353.424C258.444,356.856 257.418,362.017 259.275,366.501C261.132,370.985 265.508,373.909 270.362,373.909C313.605,373.909 394.565,373.909 437.808,373.909C442.662,373.909 447.037,370.985 448.895,366.501C450.752,362.017 449.725,356.856 446.293,353.424C423.689,330.82 387.911,295.041 368.227,275.357Z" style="fill:rgb(0,175,242);"/>
                </g>
            </g>
        </g>
    </g>
</svg>
